<svg width="319" height="49" viewBox="0 0 319 49" fill="none" xmlns="http://www.w3.org/2000/svg">
<path d="M84.304 27.696H68.572V26.112H84.304C84.112 23.136 83.02 20.7 81.028 18.804C79.06 16.86 76.588 15.888 73.612 15.888C70.756 15.888 67.84 16.68 64.864 18.264V16.176C67.84 14.808 70.72 14.124 73.504 14.124C76.984 14.124 79.996 15.324 82.54 17.724C85.108 20.1 86.392 23.112 86.392 26.76C86.392 30.336 85.144 33.336 82.648 35.76C80.152 38.136 77.044 39.324 73.324 39.324C70.372 39.324 67.468 38.556 64.612 37.02V35.04C67.804 36.72 70.72 37.56 73.36 37.56C76.432 37.56 78.964 36.648 80.956 34.824C82.972 33 84.088 30.624 84.304 27.696ZM93.0073 39V14.448H94.9153V25.644H95.8873C97.1353 25.644 98.1313 25.38 98.8753 24.852C99.6433 24.324 100.327 23.412 100.927 22.116L103.195 17.256C103.699 16.176 104.251 15.444 104.851 15.06C105.451 14.652 106.267 14.448 107.299 14.448H108.163V16.032H107.263C106.519 16.032 105.991 16.164 105.679 16.428C105.391 16.668 105.031 17.244 104.599 18.156L102.691 22.332C102.283 23.196 101.755 24.072 101.107 24.96C100.483 25.776 99.9433 26.28 99.4873 26.472C100.303 26.616 101.035 27.048 101.683 27.768C102.355 28.464 103.207 29.628 104.239 31.26L109.063 39H106.651L102.439 31.8C101.479 30.168 100.543 29.004 99.6313 28.308C98.7193 27.588 97.6993 27.228 96.5713 27.228H94.9153V39H93.0073ZM124.302 39.324C120.702 39.324 117.63 38.112 115.086 35.688C112.59 33.24 111.342 30.252 111.342 26.724C111.342 23.196 112.59 20.22 115.086 17.796C117.606 15.348 120.678 14.124 124.302 14.124C127.95 14.124 131.034 15.348 133.554 17.796C136.074 20.22 137.334 23.196 137.334 26.724C137.334 30.252 136.074 33.24 133.554 35.688C131.01 38.112 127.926 39.324 124.302 39.324ZM132.114 34.428C134.226 32.34 135.282 29.772 135.282 26.724C135.282 23.676 134.226 21.108 132.114 19.02C130.026 16.932 127.446 15.888 124.374 15.888C121.278 15.888 118.674 16.932 116.562 19.02C114.45 21.108 113.394 23.676 113.394 26.724C113.394 29.772 114.45 32.34 116.562 34.428C118.674 36.516 121.278 37.56 124.374 37.56C127.446 37.56 130.026 36.516 132.114 34.428ZM143.787 39V14.448H145.695V25.644H146.667C147.915 25.644 148.911 25.38 149.655 24.852C150.423 24.324 151.107 23.412 151.707 22.116L153.975 17.256C154.479 16.176 155.031 15.444 155.631 15.06C156.231 14.652 157.047 14.448 158.079 14.448H158.943V16.032H158.043C157.299 16.032 156.771 16.164 156.459 16.428C156.171 16.668 155.811 17.244 155.379 18.156L153.471 22.332C153.063 23.196 152.535 24.072 151.887 24.96C151.263 25.776 150.723 26.28 150.267 26.472C151.083 26.616 151.815 27.048 152.463 27.768C153.135 28.464 153.987 29.628 155.019 31.26L159.843 39H157.431L153.219 31.8C152.259 30.168 151.323 29.004 150.411 28.308C149.499 27.588 148.479 27.228 147.351 27.228H145.695V39H143.787ZM163.278 39L174.618 14.304H175.662L187.002 39H185.022L175.086 17.472L165.258 39H163.278ZM193.697 35.832L210.761 14.448H211.985V39H210.077V17.832L193.157 39H191.789V14.448H193.697V35.832ZM237.752 25.788V14.448H239.66V39H237.752V27.372H221.372V39H219.464V14.448H221.372V25.788H237.752ZM249.047 35.832L266.111 14.448H267.335V39H265.427V17.832L248.507 39H247.139V14.448H249.047V35.832ZM274.814 39V14.448H276.722V25.644H277.694C278.942 25.644 279.938 25.38 280.682 24.852C281.45 24.324 282.134 23.412 282.734 22.116L285.002 17.256C285.506 16.176 286.058 15.444 286.658 15.06C287.258 14.652 288.074 14.448 289.106 14.448H289.97V16.032H289.07C288.326 16.032 287.798 16.164 287.486 16.428C287.198 16.668 286.838 17.244 286.406 18.156L284.498 22.332C284.09 23.196 283.562 24.072 282.914 24.96C282.29 25.776 281.75 26.28 281.294 26.472C282.11 26.616 282.842 27.048 283.49 27.768C284.162 28.464 285.014 29.628 286.046 31.26L290.87 39H288.458L284.246 31.8C283.286 30.168 282.35 29.004 281.438 28.308C280.526 27.588 279.506 27.228 278.378 27.228H276.722V39H274.814ZM294.305 39L305.645 14.304H306.689L318.029 39H316.049L312.161 30.504H300.173L296.285 39H294.305ZM306.149 17.4L300.893 28.92H311.441L306.149 17.4Z" fill="#2E2E2E"/>
<g clip-path="url(#clip0)">
<path d="M39.3992 48.6523H10.6009C9.98967 48.6509 9.40394 48.4073 8.97199 47.9748C8.54004 47.5423 8.2971 46.9563 8.29638 46.3451V40.7037H2.66857C2.05687 40.7029 1.47044 40.4596 1.0379 40.0271C0.605365 39.5946 0.362049 39.0081 0.361328 38.3964V9.60087C0.362769 8.98964 0.606403 8.4039 1.03886 7.97196C1.47132 7.54001 2.05734 7.29707 2.66857 7.29635H8.29638V1.66854C8.2971 1.05731 8.54004 0.471287 8.97199 0.0388294C9.40394 -0.393628 9.98967 -0.637261 10.6009 -0.638702H39.3992C40.0104 -0.637261 40.5961 -0.393628 41.0281 0.0388294C41.46 0.471287 41.703 1.05731 41.7037 1.66854V7.29635H47.3315C47.6353 7.29492 47.9364 7.35343 48.2176 7.46853C48.4987 7.58363 48.7544 7.75307 48.97 7.96714C49.1856 8.1812 49.3568 8.43569 49.4739 8.71603C49.591 8.99637 49.6517 9.29706 49.6524 9.60087V38.3964C49.6516 39.0081 49.4083 39.5946 48.9758 40.0271C48.5433 40.4596 47.9568 40.7029 47.3451 40.7037H41.7037V46.3315C41.7051 46.6353 41.6466 46.9364 41.5315 47.2175C41.4164 47.4987 41.247 47.7544 41.0329 47.97C40.8188 48.1856 40.5644 48.3568 40.284 48.4739C40.0037 48.591 39.703 48.6516 39.3992 48.6523ZM2.66857 9.30667C2.62958 9.30631 2.5909 9.31364 2.55473 9.32823C2.51857 9.34282 2.48564 9.36439 2.45781 9.39171C2.42999 9.41903 2.40782 9.45156 2.39257 9.48745C2.37732 9.52334 2.36928 9.56187 2.36893 9.60087V38.3964C2.36964 38.4757 2.40144 38.5515 2.45748 38.6075C2.51352 38.6636 2.58932 38.6954 2.66857 38.6961H10.2958V46.3233C10.2954 46.3625 10.3029 46.4014 10.3176 46.4378C10.3324 46.4741 10.3542 46.5072 10.3818 46.535C10.4094 46.5629 10.4423 46.585 10.4785 46.6001C10.5147 46.6152 10.5535 46.6229 10.5927 46.6229H39.3992C39.4384 46.6229 39.4772 46.6152 39.5134 46.6001C39.5496 46.585 39.5825 46.5629 39.6101 46.535C39.6377 46.5072 39.6595 46.4741 39.6743 46.4378C39.689 46.4014 39.6965 46.3625 39.6961 46.3233V38.6961H47.3233C47.4028 38.6961 47.479 38.6645 47.5352 38.6083C47.5914 38.5521 47.623 38.4759 47.623 38.3964V9.60087C47.6226 9.56187 47.6146 9.52334 47.5993 9.48745C47.5841 9.45156 47.5619 9.41903 47.5341 9.39171C47.5063 9.36439 47.4733 9.34282 47.4372 9.32823C47.401 9.31364 47.3623 9.30631 47.3233 9.30667H39.6961V1.67943C39.6965 1.64021 39.689 1.60131 39.6743 1.56497C39.6595 1.52863 39.6377 1.49558 39.6101 1.46772C39.5825 1.43986 39.5496 1.41774 39.5134 1.40265C39.4772 1.38756 39.4384 1.37979 39.3992 1.37979H10.6009C10.5617 1.37979 10.5228 1.38756 10.4866 1.40265C10.4504 1.41774 10.4176 1.43986 10.39 1.46772C10.3624 1.49558 10.3406 1.52863 10.3258 1.56497C10.311 1.60131 10.3036 1.64021 10.304 1.67943V9.30667H2.66857Z" fill="url(#paint0_linear)"/>
<path d="M34.7629 14.6457C35.1224 14.308 35.3703 14.071 35.4711 13.9702C35.9669 13.4771 35.4711 12.4938 35.4711 12.4938C36.7705 11.1944 35.4711 9.49734 35.4711 9.49734L32.3821 12.6054C30.1983 11.142 27.6288 10.3607 25 10.3607C22.3712 10.3607 19.8017 11.142 17.6179 12.6054L14.5289 9.49734C14.5289 9.49734 13.2295 11.1944 14.5289 12.4938C14.5289 12.4938 14.0876 13.5316 14.5289 13.9702C14.6297 14.071 14.8776 14.308 15.2371 14.6457C13.6984 16.3118 12.6122 18.3442 12.0819 20.5493C11.5516 22.7543 11.595 25.0584 12.2079 27.2419C12.8209 29.4254 13.9829 31.4155 15.5832 33.0224C17.1836 34.6294 19.1689 35.7996 21.3498 36.4215V38.5027L23.1749 37.0208L23.401 36.8356L25 35.5362L24.8039 35.3782L23.1695 34.0543L21.3498 32.5806V34.8062C19.4836 34.196 17.8004 33.1271 16.4547 31.6973C15.109 30.2676 14.1438 28.5229 13.6477 26.6232C13.1516 24.7235 13.1403 22.7296 13.6151 20.8244C14.0898 18.9192 15.0353 17.1638 16.3649 15.719C17.3156 16.6097 18.5196 17.7348 19.7209 18.8543C18.8116 18.9429 17.9459 19.2868 17.2237 19.8464C16.5016 20.406 15.9524 21.1585 15.6397 22.0169C15.327 22.8753 15.2634 23.8046 15.4563 24.6976C15.6492 25.5906 16.0908 26.4108 16.73 27.0635C17.3692 27.7162 18.18 28.1749 19.0688 28.3864C19.9575 28.598 20.888 28.5539 21.7527 28.2592C22.6175 27.9645 23.3812 27.4312 23.9558 26.721C24.5304 26.0107 24.8924 25.1524 25 24.2452C25.1076 25.1524 25.4696 26.0107 26.0442 26.721C26.6188 27.4312 27.3825 27.9645 28.2473 28.2592C29.112 28.5539 30.0425 28.598 30.9312 28.3864C31.82 28.1749 32.6308 27.7162 33.27 27.0635C33.9092 26.4108 34.3507 25.5906 34.5437 24.6976C34.7366 23.8046 34.673 22.8753 34.3603 22.0169C34.0475 21.1585 33.4984 20.406 32.7763 19.8464C32.0541 19.2868 31.1884 18.9429 30.2791 18.8543C31.4804 17.7348 32.6844 16.6097 33.6324 15.719C34.9655 17.1621 35.9142 18.9174 36.3911 20.8233C36.8681 22.7291 36.858 24.7243 36.3618 26.6253C35.8656 28.5262 34.8993 30.2718 33.5517 31.7014C32.2041 33.131 30.5185 34.1987 28.6502 34.8062V32.5806L26.8251 34.0625L25.1907 35.3864L24.9945 35.5444L26.5935 36.8437L26.8196 37.029L28.6447 38.5108V36.4215C30.8257 35.7996 32.811 34.6294 34.4113 33.0224C36.0116 31.4155 37.1737 29.4254 37.7866 27.2419C38.3995 25.0584 38.4429 22.7543 37.9126 20.5493C37.3824 18.3442 36.2961 16.3118 34.7574 14.6457H34.7629ZM20.1921 26.9556C19.3361 26.9309 18.5235 26.5736 17.9267 25.9594C17.33 25.3452 16.9962 24.5226 16.9962 23.6663C16.9962 22.81 17.33 21.9874 17.9267 21.3732C18.5235 20.759 19.3361 20.4017 20.1921 20.3771C20.7727 20.3765 21.3427 20.5317 21.8429 20.8265C22.2242 21.1806 22.5865 21.5157 22.9325 21.829C23.267 22.3232 23.4606 22.8993 23.4924 23.4954C23.5242 24.0914 23.393 24.6848 23.113 25.2119C22.8329 25.739 22.4145 26.1798 21.9028 26.487C21.3911 26.7942 20.8053 26.9562 20.2085 26.9556H20.1921ZM33.0958 23.6649C33.0973 24.1801 32.9779 24.6884 32.7472 25.149C32.5164 25.6096 32.1807 26.0096 31.7671 26.3167C31.3535 26.6239 30.8736 26.8296 30.366 26.9174C29.8583 27.0052 29.3372 26.9726 28.8445 26.8222C28.3517 26.6718 27.9012 26.4078 27.5292 26.0515C27.1571 25.6952 26.8739 25.2565 26.7024 24.7707C26.5308 24.2849 26.4757 23.7657 26.5415 23.2547C26.6073 22.7438 26.7921 22.2554 27.0811 21.829C27.4135 21.5157 27.7785 21.1806 28.1707 20.8265C28.6709 20.5317 29.2409 20.3765 29.8215 20.3771C30.6909 20.3814 31.5233 20.7296 32.1368 21.3457C32.7503 21.9617 33.0951 22.7955 33.0958 23.6649ZM25.03 20.0011H24.97L18.7375 13.7359C20.6118 12.5494 22.7844 11.9195 25.0027 11.9195C27.221 11.9195 29.3937 12.5494 31.268 13.7359L25.03 20.0011Z" fill="url(#paint1_linear)"/>
<path d="M25 26.4326C25 26.4326 22.8208 28.7289 25 30.9054C27.1765 28.7289 25 26.4326 25 26.4326Z" fill="url(#paint2_linear)"/>
<path d="M20.1921 21.1398C19.694 21.1392 19.207 21.2865 18.7927 21.5628C18.3784 21.8392 18.0553 22.2323 17.8645 22.6923C17.6736 23.1523 17.6236 23.6586 17.7206 24.1471C17.8176 24.6356 18.0574 25.0844 18.4096 25.4365C18.7617 25.7887 19.2105 26.0285 19.699 26.1255C20.1875 26.2225 20.6938 26.1725 21.1538 25.9816C21.6138 25.7908 22.0069 25.4678 22.2833 25.0534C22.5596 24.6391 22.7069 24.1521 22.7063 23.654C22.7063 22.9872 22.4414 22.3477 21.9699 21.8762C21.4984 21.4047 20.8589 21.1398 20.1921 21.1398ZM22.1479 23.2073C22.0281 23.2427 21.4261 23.4061 20.598 23.5941C19.7699 23.7821 20.1267 23.3735 20.3065 23.1229C20.5851 22.7263 20.8852 22.3453 21.2054 21.9815C21.2054 21.9815 21.3607 21.7717 21.6767 22.0877C21.863 22.276 22.0135 22.4966 22.1207 22.7388C22.246 23.0466 22.265 23.1828 22.1397 23.2182L22.1479 23.2073Z" fill="url(#paint3_linear)"/>
<path d="M27.291 23.665C27.2905 24.1629 27.4376 24.6498 27.7139 25.0641C27.9901 25.4783 28.383 25.8014 28.8429 25.9923C29.3028 26.1832 29.809 26.2335 30.2974 26.1366C30.7858 26.0398 31.2345 25.8003 31.5868 25.4484C31.9391 25.0965 32.1791 24.6481 32.2764 24.1597C32.3738 23.6714 32.3241 23.1652 32.1337 22.7051C31.9432 22.245 31.6206 21.8518 31.2067 21.5751C30.7927 21.2984 30.3059 21.1507 29.808 21.1507C29.1409 21.1507 28.5011 21.4155 28.0292 21.8869C27.5572 22.3584 27.2917 22.9979 27.291 23.665ZM30.8322 21.9924C30.8322 21.9924 30.9902 21.7827 31.3062 22.0987C31.4923 22.2866 31.6419 22.5073 31.7475 22.7497C31.8728 23.0357 31.8946 23.1828 31.7775 23.2182C31.6603 23.2536 31.0556 23.4171 30.2275 23.605C29.3994 23.793 29.7535 23.3844 29.9333 23.1338C30.2075 22.7376 30.5031 22.3566 30.8186 21.9924H30.8322Z" fill="url(#paint4_linear)"/>
</g>
<defs>
<linearGradient id="paint0_linear" x1="22.6846" y1="-0.652269" x2="22.6846" y2="48.6524" gradientUnits="userSpaceOnUse">
<stop offset="0.09" stop-color="#53BBB3"/>
<stop offset="1" stop-color="#584B9F"/>
</linearGradient>
<linearGradient id="paint1_linear" x1="24.8638" y1="9.42658" x2="24.8638" y2="38.5735" gradientUnits="userSpaceOnUse">
<stop stop-color="#53BBB3"/>
<stop offset="1" stop-color="#584B9F"/>
</linearGradient>
<linearGradient id="paint2_linear" x1="287.192" y1="727.058" x2="300.956" y2="727.058" gradientUnits="userSpaceOnUse">
<stop offset="0.25" stop-color="#5670A5"/>
<stop offset="1" stop-color="#584B9F"/>
</linearGradient>
<linearGradient id="paint3_linear" x1="584.599" y1="717.237" x2="677.526" y2="717.237" gradientUnits="userSpaceOnUse">
<stop offset="0.25" stop-color="#5585A9"/>
<stop offset="1" stop-color="#584B9F"/>
</linearGradient>
<linearGradient id="paint4_linear" x1="771.868" y1="717.25" x2="864.845" y2="717.25" gradientUnits="userSpaceOnUse">
<stop offset="0.25" stop-color="#5584A9"/>
<stop offset="1" stop-color="#584B9F"/>
</linearGradient>
<clipPath id="clip0">
<rect width="49" height="49" fill="white"/>
</clipPath>
</defs>
</svg>
