<svg width="279" height="279" viewBox="0 0 279 279" fill="none" xmlns="http://www.w3.org/2000/svg">
<path d="M192.36 230H86.64C84.3962 229.995 82.2459 229.1 80.6602 227.513C79.0745 225.925 78.1827 223.774 78.18 221.53V200.82H57.5201C55.2745 200.817 53.1216 199.924 51.5338 198.336C49.9459 196.748 49.0527 194.595 49.05 192.35V86.6398C49.0553 84.396 49.9497 82.2457 51.5373 80.66C53.1249 79.0743 55.2762 78.1824 57.5201 78.1798H78.18V57.5198C78.1827 55.276 79.0745 53.1246 80.6602 51.5371C82.2459 49.9495 84.3962 49.0551 86.64 49.0498H192.36C194.604 49.0551 196.754 49.9495 198.34 51.5371C199.926 53.1246 200.817 55.276 200.82 57.5198V78.1798H221.48C222.595 78.1745 223.701 78.3893 224.733 78.8119C225.765 79.2344 226.704 79.8564 227.495 80.6423C228.287 81.4281 228.915 82.3624 229.345 83.3915C229.775 84.4207 229.997 85.5245 230 86.6398V192.35C229.997 194.595 229.104 196.748 227.516 198.336C225.928 199.924 223.776 200.817 221.53 200.82H200.82V221.48C200.825 222.595 200.611 223.7 200.188 224.733C199.765 225.765 199.143 226.703 198.358 227.495C197.572 228.286 196.637 228.915 195.608 229.345C194.579 229.775 193.475 229.997 192.36 230ZM57.5201 85.5598C57.3769 85.5585 57.2349 85.5854 57.1022 85.6389C56.9694 85.6925 56.8485 85.7717 56.7464 85.872C56.6442 85.9723 56.5628 86.0917 56.5068 86.2234C56.4508 86.3552 56.4214 86.4967 56.42 86.6398V192.35C56.4227 192.641 56.5394 192.919 56.7451 193.125C56.9508 193.33 57.2291 193.447 57.5201 193.45H85.52V221.45C85.5187 221.594 85.5459 221.737 85.6001 221.87C85.6543 222.003 85.7344 222.125 85.8357 222.227C85.9371 222.329 86.0577 222.41 86.1906 222.466C86.3235 222.521 86.4661 222.55 86.6101 222.55H192.36C192.504 222.55 192.647 222.521 192.779 222.466C192.912 222.41 193.033 222.329 193.134 222.227C193.236 222.125 193.316 222.003 193.37 221.87C193.424 221.737 193.451 221.594 193.45 221.45V193.45H221.45C221.742 193.45 222.022 193.334 222.228 193.128C222.434 192.921 222.55 192.642 222.55 192.35V86.6398C222.549 86.4967 222.519 86.3552 222.463 86.2234C222.407 86.0917 222.326 85.9723 222.224 85.872C222.122 85.7717 222.001 85.6925 221.868 85.6389C221.735 85.5854 221.593 85.5585 221.45 85.5598H193.45V57.5598C193.451 57.4158 193.424 57.273 193.37 57.1396C193.316 57.0062 193.236 56.8849 193.134 56.7826C193.033 56.6803 192.912 56.5991 192.779 56.5437C192.647 56.4883 192.504 56.4598 192.36 56.4598H86.64C86.4961 56.4598 86.3535 56.4883 86.2206 56.5437C86.0877 56.5991 85.9671 56.6803 85.8657 56.7826C85.7644 56.8849 85.6843 57.0062 85.6301 57.1396C85.5759 57.273 85.5487 57.4158 85.5501 57.5598V85.5598H57.5201Z" fill="url(#paint0_linear)"/>
<path d="M175.34 105.16C176.66 103.92 177.57 103.05 177.94 102.68C179.76 100.87 177.94 97.2598 177.94 97.2598C182.71 92.4898 177.94 86.2598 177.94 86.2598L166.6 97.6698C158.583 92.2974 149.15 89.429 139.5 89.429C129.849 89.429 120.417 92.2974 112.4 97.6698L101.06 86.2598C101.06 86.2598 96.2899 92.4898 101.06 97.2598C101.06 97.2598 99.4399 101.07 101.06 102.68C101.43 103.05 102.34 103.92 103.66 105.16C98.0113 111.276 94.0236 118.737 92.0769 126.832C90.1302 134.927 90.2895 143.385 92.5396 151.401C94.7897 159.417 99.0556 166.722 104.931 172.622C110.805 178.521 118.094 182.817 126.1 185.1V192.74L132.8 187.3L133.63 186.62L139.5 181.85L138.78 181.27L132.78 176.41L126.1 171V179.17C119.249 176.93 113.07 173.006 108.13 167.757C103.19 162.508 99.6464 156.103 97.8251 149.13C96.0037 142.156 95.9625 134.836 97.7053 127.842C99.4481 120.848 102.919 114.404 107.8 109.1C111.29 112.37 115.71 116.5 120.12 120.61C116.782 120.935 113.604 122.198 110.953 124.252C108.302 126.306 106.286 129.068 105.138 132.22C103.99 135.371 103.756 138.782 104.465 142.061C105.173 145.339 106.794 148.35 109.14 150.746C111.487 153.142 114.463 154.826 117.726 155.603C120.989 156.379 124.404 156.217 127.579 155.136C130.754 154.054 133.557 152.096 135.667 149.489C137.776 146.881 139.105 143.73 139.5 140.4C139.895 143.73 141.224 146.881 143.333 149.489C145.442 152.096 148.246 154.054 151.421 155.136C154.595 156.217 158.011 156.379 161.274 155.603C164.536 154.826 167.513 153.142 169.859 150.746C172.206 148.35 173.827 145.339 174.535 142.061C175.243 138.782 175.01 135.371 173.862 132.22C172.714 129.068 170.698 126.306 168.047 124.252C165.396 122.198 162.218 120.935 158.88 120.61C163.29 116.5 167.71 112.37 171.19 109.1C176.084 114.398 179.566 120.841 181.317 127.838C183.068 134.834 183.031 142.159 181.21 149.137C179.388 156.116 175.841 162.524 170.894 167.772C165.946 173.02 159.759 176.94 152.9 179.17V171L146.2 176.44L140.2 181.3L139.48 181.88L145.35 186.65L146.18 187.33L152.88 192.77V185.1C160.886 182.817 168.174 178.521 174.049 172.622C179.924 166.722 184.19 159.417 186.44 151.401C188.69 143.385 188.85 134.927 186.903 126.832C184.956 118.737 180.969 111.276 175.32 105.16H175.34ZM121.85 150.35C118.708 150.259 115.724 148.947 113.534 146.693C111.343 144.438 110.117 141.418 110.117 138.275C110.117 135.131 111.343 132.111 113.534 129.857C115.724 127.602 118.708 126.29 121.85 126.2C123.981 126.198 126.074 126.767 127.91 127.85C129.31 129.15 130.64 130.38 131.91 131.53C133.138 133.344 133.849 135.459 133.965 137.647C134.082 139.835 133.601 142.014 132.573 143.949C131.544 145.884 130.009 147.502 128.13 148.63C126.251 149.757 124.101 150.352 121.91 150.35H121.85ZM169.22 138.27C169.226 140.161 168.787 142.027 167.94 143.718C167.093 145.409 165.861 146.877 164.342 148.005C162.824 149.132 161.062 149.888 159.199 150.21C157.335 150.532 155.422 150.412 153.613 149.86C151.804 149.308 150.15 148.339 148.785 147.031C147.419 145.723 146.379 144.112 145.749 142.329C145.12 140.546 144.917 138.64 145.159 136.764C145.4 134.888 146.079 133.095 147.14 131.53C148.36 130.38 149.7 129.15 151.14 127.85C152.976 126.767 155.069 126.198 157.2 126.2C160.392 126.216 163.447 127.494 165.699 129.756C167.952 132.017 169.217 135.078 169.22 138.27ZM139.61 124.82H139.39L116.51 101.82C123.39 97.464 131.366 95.1516 139.51 95.1516C147.653 95.1516 155.629 97.464 162.51 101.82L139.61 124.82Z" fill="url(#paint1_linear)"/>
<path d="M139.5 148.43C139.5 148.43 131.5 156.86 139.5 164.85C147.49 156.86 139.5 148.43 139.5 148.43Z" fill="url(#paint2_linear)"/>
<path d="M121.85 129C120.022 128.998 118.234 129.539 116.713 130.553C115.192 131.568 114.006 133.011 113.305 134.699C112.605 136.388 112.421 138.247 112.777 140.04C113.133 141.833 114.014 143.481 115.306 144.774C116.599 146.067 118.247 146.947 120.04 147.303C121.833 147.659 123.692 147.475 125.381 146.775C127.07 146.074 128.513 144.888 129.527 143.367C130.542 141.846 131.082 140.058 131.08 138.23C131.08 135.782 130.108 133.434 128.377 131.703C126.646 129.972 124.298 129 121.85 129ZM129.03 136.59C128.59 136.72 126.38 137.32 123.34 138.01C120.3 138.7 121.61 137.2 122.27 136.28C123.293 134.824 124.395 133.425 125.57 132.09C125.57 132.09 126.14 131.32 127.3 132.48C127.984 133.171 128.537 133.981 128.93 134.87C129.39 136 129.46 136.5 129 136.63L129.03 136.59Z" fill="url(#paint3_linear)"/>
<path d="M147.91 138.27C147.908 140.098 148.448 141.885 149.462 143.406C150.476 144.927 151.919 146.113 153.607 146.814C155.295 147.515 157.153 147.699 158.946 147.344C160.739 146.988 162.387 146.109 163.68 144.817C164.973 143.525 165.854 141.879 166.212 140.086C166.569 138.294 166.387 136.435 165.688 134.746C164.988 133.057 163.804 131.614 162.284 130.598C160.765 129.582 158.978 129.04 157.15 129.04C154.701 129.04 152.352 130.012 150.62 131.743C148.887 133.474 147.913 135.821 147.91 138.27ZM160.91 132.13C160.91 132.13 161.49 131.36 162.65 132.52C163.333 133.21 163.882 134.02 164.27 134.91C164.73 135.96 164.81 136.5 164.38 136.63C163.95 136.76 161.73 137.36 158.69 138.05C155.65 138.74 156.95 137.24 157.61 136.32C158.617 134.866 159.701 133.467 160.86 132.13H160.91Z" fill="url(#paint4_linear)"/>
<defs>
<linearGradient id="paint0_linear" x1="131" y1="49" x2="131" y2="230" gradientUnits="userSpaceOnUse">
<stop offset="0.09" stop-color="#53BBB3"/>
<stop offset="1" stop-color="#584B9F"/>
</linearGradient>
<linearGradient id="paint1_linear" x1="139" y1="86" x2="139" y2="193" gradientUnits="userSpaceOnUse">
<stop stop-color="#53BBB3"/>
<stop offset="1" stop-color="#584B9F"/>
</linearGradient>
<linearGradient id="paint2_linear" x1="1102.02" y1="2720.46" x2="1152.55" y2="2720.46" gradientUnits="userSpaceOnUse">
<stop offset="0.25" stop-color="#5670A5"/>
<stop offset="1" stop-color="#584B9F"/>
</linearGradient>
<linearGradient id="paint3_linear" x1="2193.82" y1="2684.41" x2="2534.96" y2="2684.41" gradientUnits="userSpaceOnUse">
<stop offset="0.25" stop-color="#5585A9"/>
<stop offset="1" stop-color="#584B9F"/>
</linearGradient>
<linearGradient id="paint4_linear" x1="2881.29" y1="2684.46" x2="3222.61" y2="2684.46" gradientUnits="userSpaceOnUse">
<stop offset="0.25" stop-color="#5584A9"/>
<stop offset="1" stop-color="#584B9F"/>
</linearGradient>
</defs>
</svg>
