  <svg version="1.1" xmlns="http://www.w3.org/2000/svg" xmlns:xlink="http://www.w3.org/1999/xlink">

    <symbol viewBox="0 0 20 20" fill="none" id="facebook">
          <path d="M10.474 17.8H11.274V17V11.5768V10.7768H10.474H9.45104V10.2622H10.474H11.274V9.46224V7.90365C11.274 7.16869 11.4964 6.69395 11.7925 6.40276C12.0917 6.10862 12.5547 5.91458 13.1992 5.91458C13.5007 5.91458 13.7831 5.92346 14.0216 5.93536V6.28986L13.7061 6.29245C13.1645 6.29298 12.6158 6.41737 12.2436 6.85676C11.8958 7.26734 11.8615 7.77801 11.8615 8.11328V9.46224V10.2622H12.6615H13.8386L13.772 10.7768H12.6615H11.8615V11.5768V17V17.8H12.6615H14.375C16.266 17.8 17.8 16.266 17.8 14.375V5.625C17.8 3.73395 16.266 2.2 14.375 2.2H5.625C3.73395 2.2 2.2 3.73395 2.2 5.625V14.375C2.2 16.266 3.73395 17.8 5.625 17.8H10.474Z" stroke="#5539BE" stroke-width="1.6"/>
    </symbol>


  <symbol viewBox="0 0 20 20" stroke="none" id="wassup">
  <path fill-rule="evenodd" clip-rule="evenodd" d="M16.3774 3.61584C14.6853 1.92988 12.435 1.00099 10.0376 1C5.09762 1 1.07716 5.00111 1.07518 9.91881C1.07451 11.4908 1.48716 13.0254 2.27149 14.3781L1 19L5.75114 17.7596C7.06027 18.4703 8.53411 18.8449 10.034 18.8453H10.0378C14.9772 18.8453 18.9981 14.8439 19 9.92595C19.001 7.54258 18.0696 5.3017 16.3774 3.61584ZM10.0376 17.339H10.0346C8.69793 17.3384 7.38703 16.9809 6.24316 16.3056L5.97126 16.1449L3.15186 16.881L3.9044 14.1453L3.72722 13.8648C2.98153 12.6844 2.58776 11.3201 2.58842 9.91936C2.58997 5.8319 5.93174 2.50645 10.0406 2.50645C12.0303 2.5071 13.9007 3.27922 15.3071 4.68053C16.7135 6.08184 17.4875 7.94446 17.4869 9.9254C17.4851 14.0132 14.1435 17.339 10.0376 17.339ZM14.1237 11.7866C13.8998 11.675 12.7988 11.136 12.5934 11.0615C12.3883 10.9871 12.2389 10.9501 12.0897 11.1731C11.9404 11.3961 11.5113 11.8982 11.3806 12.0469C11.2499 12.1956 11.1194 12.2143 10.8954 12.1027C10.6714 11.9912 9.94988 11.7557 9.09446 10.9965C8.4288 10.4055 7.97939 9.67568 7.84869 9.45266C7.71821 9.22942 7.84759 9.12043 7.94694 8.99783C8.18936 8.69823 8.43211 8.38413 8.50673 8.23549C8.58147 8.08673 8.54405 7.95654 8.48797 7.84503C8.43211 7.73352 7.98425 6.63654 7.79769 6.19016C7.61576 5.75576 7.4313 5.81443 7.29375 5.80762C7.16327 5.80114 7.01391 5.79982 6.86455 5.79982C6.7153 5.79982 6.47266 5.85552 6.26733 6.07876C6.06211 6.30189 5.48366 6.84099 5.48366 7.93798C5.48366 9.03496 6.2861 10.0947 6.39804 10.2435C6.50997 10.3922 7.97719 12.6433 10.2235 13.6086C10.7578 13.8384 11.1749 13.9754 11.5002 14.0781C12.0367 14.2478 12.5248 14.2238 12.9107 14.1665C13.341 14.1024 14.2355 13.6272 14.4223 13.1067C14.6088 12.5861 14.6088 12.1399 14.5528 12.0469C14.4969 11.9539 14.3475 11.8982 14.1237 11.7866Z"/>
  </symbol>

  <symbol viewBox="0 0 20 20" stroke="none" id="instagram">
  <path d="M18.9543 6.29207C18.9121 5.33565 18.7574 4.67813 18.5358 4.10837C18.3072 3.50359 17.9555 2.96214 17.4947 2.51202C17.0445 2.0549 16.4994 1.69969 15.9015 1.4747C15.3283 1.25315 14.6741 1.09848 13.7175 1.05632C12.7538 1.01058 12.4478 1 10.0035 1C7.55919 1 7.25324 1.01058 6.29308 1.05274C5.33648 1.09491 4.67883 1.24971 4.1091 1.47113C3.50407 1.69969 2.96251 2.05133 2.51231 2.51202C2.0551 2.96214 1.69996 3.50717 1.47479 4.10494C1.2532 4.67813 1.0985 5.33208 1.05633 6.28849C1.01058 7.25205 1 7.55794 1 10.0018C1 12.4456 1.01058 12.7515 1.05275 13.7115C1.09493 14.6679 1.24976 15.3254 1.47136 15.8952C1.69996 16.5 2.0551 17.0414 2.51231 17.4916C2.96251 17.9487 3.50764 18.3039 4.10553 18.5289C4.67883 18.7504 5.33291 18.9051 6.28964 18.9473C7.24967 18.9896 7.55576 19 10.0001 19C12.4444 19 12.7503 18.9896 13.7105 18.9473C14.6671 18.9051 15.3247 18.7504 15.8945 18.5289C17.1044 18.0612 18.061 17.1048 18.5288 15.8952C18.7502 15.322 18.9051 14.6679 18.9472 13.7115C18.9894 12.7515 19 12.4456 19 10.0018C19 7.55794 18.9964 7.25205 18.9543 6.29207ZM17.333 13.6412C17.2943 14.5203 17.1466 14.995 17.0235 15.3114C16.721 16.0956 16.0985 16.718 15.3142 17.0204C14.9976 17.1435 14.5194 17.2911 13.6436 17.3297C12.694 17.3721 12.4092 17.3825 10.0071 17.3825C7.60494 17.3825 7.31658 17.3721 6.37042 17.3297C5.49117 17.2911 5.01638 17.1435 4.69985 17.0204C4.30955 16.8762 3.95427 16.6476 3.66591 16.3487C3.36696 16.0569 3.13836 15.7052 2.99411 15.315C2.87101 14.9985 2.72333 14.5203 2.68472 13.6448C2.64241 12.6953 2.63197 12.4105 2.63197 10.0088C2.63197 7.60711 2.64241 7.3188 2.68472 6.37297C2.72333 5.49389 2.87101 5.01918 2.99411 4.70271C3.13836 4.31235 3.36696 3.95728 3.66948 3.66883C3.96128 3.36995 4.31298 3.14139 4.70342 2.9973C5.01995 2.87423 5.49832 2.72657 6.37399 2.68783C7.32358 2.64567 7.60851 2.63509 10.0105 2.63509C12.4162 2.63509 12.701 2.64567 13.6472 2.68783C14.5264 2.72657 15.0012 2.87423 15.3177 2.9973C15.708 3.14139 16.0633 3.36995 16.3517 3.66883C16.6506 3.96072 16.8792 4.31235 17.0235 4.70271C17.1466 5.01918 17.2943 5.49732 17.333 6.37297C17.3752 7.32237 17.3858 7.60711 17.3858 10.0088C17.3858 12.4105 17.3752 12.6918 17.333 13.6412Z"/><path d="M10 5C7.23963 5 5 7.23948 5 10C5 12.7605 7.23963 15 10 15C12.7605 15 15 12.7605 15 10C15 7.23948 12.7605 5 10 5ZM10 13.2434C8.20921 13.2434 6.75662 11.7909 6.75662 10C6.75662 8.20907 8.20921 6.75662 10 6.75662C11.7909 6.75662 13.2434 8.20907 13.2434 10C13.2434 11.7909 11.7909 13.2434 10 13.2434Z"/><path d="M16 5C16 5.55223 15.5523 6 14.9999 6C14.4477 6 14 5.55223 14 5C14 4.44764 14.4477 4 14.9999 4C15.5523 4 16 4.44764 16 5Z"/>
  </symbol>

  <symbol viewBox="0 0 20 20" id="phone">
  <path d="M13.9365 19C13.3555 19 12.7794 18.8973 12.216 18.6926C9.73416 17.791 7.43046 16.3226 5.5539 14.4461C3.67734 12.5696 2.20892 10.2658 1.30738 7.78396C1.01767 6.98637 0.932171 6.16305 1.05335 5.33677C1.16686 4.5628 1.46666 3.81144 1.92037 3.16388C2.37608 2.51348 2.98363 1.97252 3.6773 1.59949C4.41703 1.20172 5.22443 1 6.07715 1C6.34235 1 6.57156 1.1853 6.62714 1.4446L7.51002 5.56471C7.54999 5.75128 7.49265 5.9454 7.35776 6.08033L5.84917 7.58889C7.2723 10.4184 9.58155 12.7276 12.411 14.1507L13.9196 12.6421C14.0545 12.5073 14.2487 12.45 14.4352 12.4899L18.5553 13.3728C18.8146 13.4283 18.9999 13.6576 18.9999 13.9228C18.9999 14.7755 18.7982 15.5829 18.4004 16.3226C18.0274 17.0163 17.4864 17.6239 16.836 18.0796C16.1885 18.5333 15.4371 18.8331 14.6631 18.9466C14.4206 18.9822 14.1781 19 13.9365 19ZM5.62773 2.14956C4.50295 2.27373 3.50462 2.86328 2.84167 3.80947C2.09618 4.87343 1.92234 6.18207 2.36473 7.3999C4.098 12.1713 7.82866 15.902 12.6001 17.6353C13.8179 18.0776 15.1265 17.9038 16.1905 17.1583C17.1367 16.4954 17.7263 15.497 17.8504 14.3723L14.4987 13.654L12.9232 15.2295C12.7556 15.3972 12.5008 15.4417 12.2863 15.3409C8.93994 13.7688 6.23119 11.06 4.65907 7.71365C4.55828 7.4991 4.60279 7.24437 4.77044 7.07675L6.34594 5.50126L5.62773 2.14956Z" stroke-width="0.5"/>
  </symbol>

  <symbol viewBox="0 0 20 20" stroke="none" id="sandwich-full">
  <rect x="1" y="1" width="18" height="3"/>
  <path d="M1 8.5H19V11.5H1V8.5Z"/>
  <rect x="1" y="16" width="18" height="3"/>
  </symbol>

  <symbol viewBox="0 0 20 20" stroke="none" id="sandwich">
  <rect x="1" y="1" width="18" height="3"/>
  <path d="M1 8.5H14.5V11.5H1V8.5Z"/>
  <rect x="1" y="16" width="7.5" height="3"/>
  </symbol>

  <symbol viewBox="0 0 20 20" stroke="none" id="arr-f">
  <path d="M18 9.53986L18.6454 10.3037L19.5428 9.54537L18.6509 8.78068L18 9.53986ZM10.893 14.2362C10.4712 14.5927 10.4182 15.2236 10.7746 15.6454C11.1311 16.0673 11.7621 16.1203 12.1839 15.7638L10.893 14.2362ZM12.1893 3.24082C11.7701 2.88135 11.1388 2.92983 10.7793 3.34911C10.4198 3.7684 10.4683 4.3997 10.8876 4.75918L12.1893 3.24082ZM17.3546 8.77604L10.893 14.2362L12.1839 15.7638L18.6454 10.3037L17.3546 8.77604ZM18.6509 8.78068L12.1893 3.24082L10.8876 4.75918L17.3491 10.299L18.6509 8.78068ZM0 10.5399H9V8.53986H0V10.5399ZM9 10.5399H18V8.53986H9V10.5399Z"/>
  </symbol>

  <symbol viewBox="0 0 20 20" stroke="none" id="arr-b">
  <path d="M2 9.46014L1.35456 8.69633L0.457196 9.45463L1.34911 10.2193L2 9.46014ZM9.10698 4.76381C9.52882 4.40734 9.58182 3.7764 9.22535 3.35456C8.86889 2.93272 8.23794 2.87972 7.8161 3.23619L9.10698 4.76381ZM7.81065 15.7592C8.22993 16.1186 8.86124 16.0702 9.22071 15.6509C9.58019 15.2316 9.5317 14.6003 9.11242 14.2408L7.81065 15.7592ZM2.64544 10.224L9.10698 4.76381L7.8161 3.23619L1.35456 8.69633L2.64544 10.224ZM1.34911 10.2193L7.81065 15.7592L9.11242 14.2408L2.65089 8.70097L1.34911 10.2193ZM20 8.46014L11 8.46014L11 10.4601L20 10.4601L20 8.46014ZM11 8.46014L2 8.46014L2 10.4601L11 10.4601L11 8.46014Z"/>
  </symbol>

  <symbol viewBox="0 0 20 20" id="calendar">
  <rect x="1" y="1" width="18" height="18" rx="3" fill="none" stroke-width="2"/>
  <path d="M5.83337 1.66663V5.83329" fill="none" stroke-width="2" stroke-linecap="round" stroke-linejoin="round"/>
  <path d="M10 1.66663V5.83329" fill="none" stroke-width="2" stroke-linecap="round" stroke-linejoin="round"/>
  <path d="M14.1666 1.66663V5.83329" fill="none" stroke-width="2" stroke-linecap="round" stroke-linejoin="round"/>
  <circle cx="10.8333" cy="11.6667" r="0.833333" stroke="none"/>
  <ellipse cx="15" cy="11.6667" rx="0.833334" ry="0.833333" stroke="none"/>
  <circle cx="5.83329" cy="11.6667" r="1.66667" stroke="none"/>
  </symbol>

  <symbol viewBox="0 0 44 44" stroke="none" id="facebook-big">
  <path d="M19.9518 32V22.9289H17V19.3475H19.9518V15.9782C19.9518 14.3211 21.488 12.2555 23.5663 12.0592C25.4934 11.8771 27 12.1731 27 12.1731V15.4834H24.8129C24.1244 15.4834 23.5663 16.0656 23.5663 16.7837V19.3475H26.8795L26.3674 22.9289H23.5399V32H19.9518Z"/>
  </symbol>

  <symbol viewBox="0 0 44 44" stroke="none" id="instagram-big">
  <path fill-rule="evenodd" clip-rule="evenodd" d="M31.5089 29.194C31.6759 28.7642 31.8746 28.1183 31.9289 26.9289C31.9875 25.6427 32 25.257 32 22C32 18.743 31.9875 18.3573 31.9289 17.0711C31.8746 15.8818 31.6759 15.2359 31.5089 14.8061C31.2877 14.2367 31.0233 13.8305 30.5964 13.4035C30.1696 12.9768 29.7632 12.7124 29.1939 12.4911C28.7641 12.3241 28.1182 12.1254 26.9289 12.0711C25.6427 12.0125 25.2569 12 22 12C18.743 12 18.3573 12.0125 17.071 12.0711C15.8818 12.1254 15.2359 12.3241 14.8061 12.4911C14.2367 12.7124 13.8304 12.9768 13.4035 13.4035C12.9767 13.8305 12.7124 14.2367 12.4911 14.8061C12.3241 15.2359 12.1253 15.8818 12.0711 17.0711C12.0124 18.3573 12 18.743 12 22C12 25.257 12.0124 25.6427 12.0711 26.9289C12.1253 28.1183 12.3241 28.7642 12.4911 29.194C12.7124 29.7633 12.9767 30.1696 13.4035 30.5966C13.8304 31.0233 14.2367 31.2877 14.8061 31.509C15.2359 31.6759 15.8818 31.8747 17.071 31.9289C18.3571 31.9876 18.7427 32 22 32C25.2572 32 25.6429 31.9876 26.9289 31.9289C28.1182 31.8747 28.7641 31.6759 29.1939 31.509C29.7632 31.2877 30.1696 31.0233 30.5964 30.5966C31.0233 30.1696 31.2877 29.7633 31.5089 29.194ZM15.7363 22.0001C15.7363 18.5407 18.5407 15.7363 22 15.7363C25.4593 15.7363 28.2637 18.5407 28.2637 22.0001C28.2637 25.4595 25.4593 28.2637 22 28.2637C18.5407 28.2637 15.7363 25.4595 15.7363 22.0001ZM21.9999 26.0659C19.7543 26.0659 17.934 24.2456 17.934 22C17.934 19.7545 19.7543 17.9341 21.9999 17.9341C24.2455 17.9341 26.0659 19.7545 26.0659 22C26.0659 24.2456 24.2455 26.0659 21.9999 26.0659ZM27.0474 15.4891C27.0474 14.6807 27.7028 14.0254 28.5112 14.0254C29.3196 14.0254 29.9749 14.6807 29.9749 15.4891C29.9749 16.2975 29.3196 16.9529 28.5112 16.9529C27.7028 16.9529 27.0474 16.2975 27.0474 15.4891Z"/>
  </symbol>

  <symbol viewBox="0 0 20 20" stroke="none" id="text">
  <rect x="3" y="4" width="14" height="1.44444"/>
  <rect x="9" y="14.1111" width="6" height="1.44444" transform="rotate(-180 9 14.1111)"/>
  <rect x="17" y="14.1111" width="6" height="1.44444" transform="rotate(-180 17 14.1111)"/>
  <rect x="10" y="6.88892" width="7" height="1.44444"/>
  <rect x="12" y="11.2222" width="9" height="1.44444" transform="rotate(-180 12 11.2222)"/>
  <rect x="3" y="6.88892" width="5" height="1.44444"/>
  <rect x="3" y="15.5555" width="5" height="1.44444"/>
  <rect x="17" y="11.2222" width="3" height="1.44444" transform="rotate(-180 17 11.2222)"/>
  </symbol>



  <symbol viewBox="0 0 20 20" fill="none" id="drop">
  <path d="M4 7L10 13L16 7" stroke-width="2" stroke-linecap="round" stroke-linejoin="round"/>
  </symbol>

  <symbol viewBox="0 0 20 20" stroke="none" id="play">
  <path d="M19 10L5.5 17.7942L5.5 2.20577L19 10Z"/>
  </symbol>

  <symbol viewBox="0 0 20 20" stroke="none" id="cross">
  <path d="M2.85716 20L2.43637e-05 17.1429L17.1429 0L20 2.85714L2.85716 20Z"/>
  <path d="M0 2.85714L2.85714 1.76615e-06L20 17.1429L17.1428 20L0 2.85714Z"/>
  </symbol>

  <symbol viewBox="0 0 46 46" stroke="none" id="bwd">
  <path d="M33 23.1377L35.0583 25.3202L37.3557 23.1534L35.0741 20.9701L33 23.1377ZM10.9417 39.8175C9.73631 40.9543 9.68073 42.853 10.8175 44.0583C11.9543 45.2637 13.853 45.3193 15.0583 44.1825L10.9417 39.8175ZM15.0741 1.83247C13.877 0.686985 11.9779 0.728827 10.8325 1.92592C9.68699 3.12302 9.72883 5.02205 10.9259 6.16753L15.0741 1.83247ZM30.9417 20.9552L10.9417 39.8175L15.0583 44.1825L35.0583 25.3202L30.9417 20.9552ZM35.0741 20.9701L15.0741 1.83247L10.9259 6.16753L30.9259 25.3052L35.0741 20.9701Z"/>
  </symbol>

  <symbol viewBox="0 0 46 46" stroke="none" id="fwd">
  <path d="M13 22.8623L10.9417 20.6798L8.64425 22.8466L10.9259 25.0299L13 22.8623ZM35.0583 6.18249C36.2637 5.0457 36.3193 3.14702 35.1825 1.94166C34.0457 0.736309 32.147 0.680725 30.9417 1.81751L35.0583 6.18249ZM30.9259 44.1675C32.123 45.313 34.0221 45.2712 35.1675 44.0741C36.313 42.877 36.2712 40.9779 35.0741 39.8325L30.9259 44.1675ZM15.0583 25.0448L35.0583 6.18249L30.9417 1.81751L10.9417 20.6798L15.0583 25.0448ZM10.9259 25.0299L30.9259 44.1675L35.0741 39.8325L15.0741 20.6948L10.9259 25.0299Z"/>
  </symbol>

  <symbol viewBox="0 0 20 20" fill="none" id="geo">
  <path d="M6.58323 15.4382C7.12865 16.2121 7.7521 17.0968 8.4626 18.1186C9.05991 19.0261 10.4089 19.0261 11.0062 18.1186C11.7688 17.0218 12.4321 16.083 13.0068 15.2695C14.1268 13.6843 14.9105 12.575 15.4375 11.7002C15.8467 11.0209 16.1311 10.4369 16.3078 9.83786C16.4862 9.23305 16.5434 8.6524 16.5434 7.99415C16.5434 4.24348 13.5007 1.20078 9.75001 1.20078C5.96541 1.20078 2.95664 4.2462 2.95664 7.99415C2.95664 8.65028 3.01144 9.22979 3.18617 9.83379C3.35942 10.4327 3.63937 11.0169 4.04505 11.6972C4.58615 12.6045 5.40159 13.7615 6.58323 15.4382ZM9.75001 9.69249C8.78652 9.69249 8.05166 8.95763 8.05166 7.99415C8.05166 7.05535 8.79303 6.2958 9.75001 6.2958C10.6823 6.2958 11.4483 7.06188 11.4483 7.99415C11.4483 8.95112 10.6888 9.69249 9.75001 9.69249Z" stroke-width="1.59844"/>
  </symbol>

  <symbol viewBox="0 0 20 20" fill="none" id="time">
  <path d="M12.0948 12.6437L9.23438 10.5573V4.875H10.2031V9.78906V10.0406L10.4051 10.1905L12.6772 11.8774L12.0948 12.6437ZM1.5 9.71875C1.5 5.17849 5.17849 1.5 9.71875 1.5C14.259 1.5 17.9375 5.17849 17.9375 9.71875C17.9375 14.259 14.259 17.9375 9.71875 17.9375C5.17849 17.9375 1.5 14.259 1.5 9.71875ZM2.1875 9.71875C2.1875 13.8972 5.54026 17.25 9.71875 17.25C13.8604 17.25 17.25 13.8989 17.25 9.71875C17.25 5.57542 13.8621 2.1875 9.71875 2.1875C5.53864 2.1875 2.1875 5.57705 2.1875 9.71875Z"/>
  </symbol>

  <symbol viewBox="0 0 27 36" stroke="none" id="pdf">
  <path d="M12.7266 18.0703C13.1484 17.3672 13.2188 14.7656 12.5859 14.7656C12.4453 14.7656 12.375 16.9453 12.7266 18.0703ZM12.6562 21.375C12.0938 22.7812 11.3906 24.3984 10.6172 25.7344C11.9531 25.2422 13.3594 24.5391 15.0469 24.2578C14.2031 23.5547 13.2891 22.5703 12.6562 21.375ZM6.04688 30.1641C6.04688 30.1641 6.96094 29.7422 8.50781 27.2812C8.01562 27.7734 6.39844 29.0391 6.04688 30.1641ZM17.4375 11.25C16.4531 11.25 15.75 10.5469 15.75 9.5625V0H1.6875C0.703125 0 0 0.773438 0 1.6875V34.3125C0 35.2969 0.703125 36 1.6875 36H25.3125C26.2266 36 27 35.2969 27 34.3125V11.25H17.4375ZM16.875 23.3438C18.2109 23.2031 21.0234 22.9219 22.0078 23.8359C22.8516 24.6797 22.7109 26.9297 20.6016 26.9297C19.4766 26.9297 17.6484 26.3672 16.1016 25.5234C14.4141 25.8047 12.375 26.5781 10.5469 27.2109C8.78906 30.2344 7.52344 31.5 6.25781 31.5C5.90625 31.5 5.13281 31.2891 4.78125 30.7969C3.44531 29.1797 6.67969 27 8.57812 26.0156C8.57812 26.0156 8.57812 26.0156 8.64844 26.0156C9.49219 24.5391 10.6875 21.9375 11.4609 19.9688C10.8984 17.7188 10.5469 15.8906 10.8984 14.5547C11.3203 13.2188 13.9219 13.0078 14.2734 15.0469C14.625 16.3125 14.1328 18.2812 13.8516 19.5469C14.4844 21.3047 15.4688 22.5 16.875 23.3438ZM26.5078 7.38281L19.6172 0.492188C19.2656 0.210938 18.8438 0 18.4219 0H18V9H27V8.57812C27 8.15625 26.7891 7.73438 26.5078 7.38281ZM21.2344 25.3828C21.5859 25.1719 21.0938 24.5391 18.2812 24.75C20.8828 25.875 21.2344 25.3828 21.2344 25.3828Z"/>
  </symbol>

  <symbol viewBox="0 0 191 46" id="longarm" preserveAspectRatio="xMaxYMin meet">
     <path d="M0 23H174" fill="none" stroke-width="4"/>
     <path d="M178 23.1377L180.058 25.3202L182.356 23.1534L180.074 20.9701L178 23.1377ZM155.942 39.8175C154.736 40.9543 154.681 42.853 155.818 44.0583C156.954 45.2637 158.853 45.3193 160.058 44.1825L155.942 39.8175ZM160.074 1.83247C158.877 0.686985 156.978 0.728827 155.832 1.92592C154.687 3.12302 154.729 5.02205 155.926 6.16753L160.074 1.83247ZM175.942 20.9552L155.942 39.8175L160.058 44.1825L180.058 25.3202L175.942 20.9552ZM180.074 20.9701L160.074 1.83247L155.926 6.16753L175.926 25.3052L180.074 20.9701Z" stroke="none"/>
  </symbol>
  <symbol viewBox="0 0 65 46" id="shortarm" preserveAspectRatio="xMinYMin meet">
     <path d="M17 23H65" fill="none" stroke-width="4"/>
     <path d="M13 22.8623L10.9417 20.6798L8.64425 22.8466L10.9259 25.0299L13 22.8623ZM35.0583 6.18249C36.2637 5.0457 36.3193 3.14702 35.1825 1.94166C34.0457 0.736309 32.147 0.680725 30.9417 1.81751L35.0583 6.18249ZM30.9259 44.1675C32.123 45.313 34.0221 45.2712 35.1675 44.0741C36.313 42.877 36.2712 40.9779 35.0741 39.8325L30.9259 44.1675ZM15.0583 25.0448L35.0583 6.18249L30.9417 1.81751L10.9417 20.6798L15.0583 25.0448ZM10.9259 25.0299L30.9259 44.1675L35.0741 39.8325L15.0741 20.6948L10.9259 25.0299Z" stroke="none"/>
  </symbol>


</svg>
